<?xml version="1.0" encoding="utf-8"?>
<!-- Generator: Adobe Illustrator 21.0.0, SVG Export Plug-In . SVG Version: 6.00 Build 0)  -->
<!DOCTYPE svg PUBLIC "-//W3C//DTD SVG 1.1//EN" "http://www.w3.org/Graphics/SVG/1.1/DTD/svg11.dtd">
<svg version="1.1" id="Layer_1" xmlns="http://www.w3.org/2000/svg" xmlns:xlink="http://www.w3.org/1999/xlink" x="0px" y="0px"
	 viewBox="0 0 25 30.2" style="enable-background:new 0 0 25 30.2;" xml:space="preserve">
<style type="text/css">
	.st0{fill:#95358C;}
	.st1{fill:#FFFFFF;}
</style>
<g>
	<path class="st0" d="M5.4,19.6c-3.9-3.9-3.9-10.2,0-14.1c1.9-1.9,4.4-2.9,7.1-2.9c2.7,0,5.2,1,7.1,2.9c3.9,3.9,3.9,10.2,0,14.1
		l-7.1,7.1L5.4,19.6z"/>
	<path class="st1" d="M12.5,5c2,0,3.9,0.8,5.3,2.2c1.4,1.4,2.2,3.3,2.2,5.3c0,2-0.8,3.9-2.2,5.3l-5.3,5.3l-5.3-5.3
		C5.8,16.4,5,14.5,5,12.5c0-2,0.8-3.9,2.2-5.3C8.6,5.8,10.5,5,12.5,5 M12.5,0C9.3,0,6.1,1.2,3.7,3.7h0c-4.9,4.9-4.9,12.8,0,17.7
		l8.8,8.8l8.8-8.8c4.9-4.9,4.9-12.8,0-17.7h0C18.9,1.2,15.7,0,12.5,0L12.5,0z"/>
</g>
</svg>
