<?xml version="1.0" encoding="utf-8"?>
<!-- Generator: Adobe Illustrator 21.1.0, SVG Export Plug-In . SVG Version: 6.00 Build 0)  -->
<svg version="1.1" id="Layer_1" xmlns="http://www.w3.org/2000/svg" xmlns:xlink="http://www.w3.org/1999/xlink" x="0px" y="0px"
	 viewBox="0 0 200 39.1" style="enable-background:new 0 0 200 39.1;" xml:space="preserve">
<style type="text/css">
	.st0{fill:#FFFFFF;}
	.st1{fill:#008FBE;}
	.st2{fill:#FFAD26;}
	.st3{fill:#95358C;}
</style>
<g>
	<g>
		<g>
			<g>
				<polygon class="st0" points="85.8,11.3 85.8,6 60.6,6 60.6,38.6 85.8,38.6 85.8,33.4 65.8,33.4 65.8,24.9 78.4,24.9 78.4,19.7 
					65.8,19.7 65.8,11.3 				"/>
			</g>
		</g>
		<g>
			<g>
				<g>
					<polygon class="st0" points="128.4,38.6 123.2,38.6 123.2,14.6 111,30.1 108.1,30.1 95.9,14.6 95.9,38.6 90.7,38.6 90.7,6 
						95.8,6 109.5,23.6 123.3,6 128.4,6 					"/>
				</g>
			</g>
		</g>
		<g>
			<g>
				<g>
					<polygon class="st0" points="200,38.6 195,38.6 173.3,14.1 173.3,38.6 168.1,38.6 168.1,6 173.1,6 194.8,30.5 194.8,6 200,6 
											"/>
				</g>
			</g>
		</g>
		<g>
			<g>
				<path class="st0" d="M158.9,27.3c-1.9,4-6.1,6.8-10.9,6.6c-5.9-0.2-10.7-4.9-11.1-10.8c-0.4-6.7,4.9-12.3,11.5-12.3
					c4.6,0,8.6,2.7,10.4,6.6h5.6c-2.2-7.2-9.3-12.4-17.4-11.7c-8.2,0.6-14.7,7.3-15.3,15.4c-0.7,9.8,7.1,18,16.7,18
					c7.5,0,13.9-5,16-11.8L158.9,27.3z"/>
			</g>
		</g>
	</g>
	<g>
		<g>
			<polygon class="st1" points="34.9,11 34.9,5.6 32.3,8.3 24,0 15.7,8.3 13.1,5.6 13.1,11 24,21.9 			"/>
		</g>
		<g>
			<polygon class="st2" points="34.9,12.8 10.9,36.8 12.7,38.5 35.3,38.5 48,25.9 44.9,25.9 44.9,15.9 34.9,15.9 			"/>
		</g>
		<g>
			<polygon class="st3" points="23.1,22.8 13.1,12.8 13.1,15.9 3.1,15.9 3.1,25.9 0,25.9 10,35.9 			"/>
		</g>
	</g>
</g>
</svg>
