<?xml version="1.0" encoding="utf-8"?>
<!-- Generator: Adobe Illustrator 21.1.0, SVG Export Plug-In . SVG Version: 6.00 Build 0)  -->
<svg version="1.1" id="Layer_1" xmlns="http://www.w3.org/2000/svg" xmlns:xlink="http://www.w3.org/1999/xlink" x="0px" y="0px"
	 viewBox="0 0 181.6 35.5" style="enable-background:new 0 0 181.6 35.5;" xml:space="preserve">
<style type="text/css">
	.st0{fill:#687079;}
	.st1{opacity:0.5;fill:#687079;}
	.st2{opacity:0.75;fill:#687079;}
</style>
<g>
	<polygon class="st0" points="31.7,10 31.7,5.1 29.3,7.5 21.8,0 14.3,7.5 11.9,5.1 11.9,10 21.8,19.9 	"/>
	<g>
		<g>
			<g>
				<polygon class="st0" points="77.9,10.2 77.9,5.5 55,5.5 55,35 77.9,35 77.9,30.3 59.8,30.3 59.8,22.6 71.2,22.6 71.2,17.9 
					59.8,17.9 59.8,10.2 				"/>
			</g>
			<g>
				<g>
					<polygon class="st0" points="116.6,35 111.8,35 111.8,13.3 100.8,27.4 98.1,27.4 87.1,13.3 87.1,35 82.3,35 82.3,5.5 87,5.5 
						99.5,21.4 111.9,5.5 116.6,5.5 					"/>
				</g>
			</g>
			<g>
				<g>
					<polygon class="st0" points="181.6,35 177,35 157.3,12.8 157.3,35 152.6,35 152.6,5.5 157.1,5.5 176.8,27.7 176.8,5.5 
						181.6,5.5 					"/>
				</g>
			</g>
			<g>
				<path class="st0" d="M144.3,24.7c-1.7,3.6-5.5,6.1-9.9,6c-5.3-0.2-9.7-4.5-10-9.8c-0.4-6.1,4.5-11.1,10.4-11.1
					c4.2,0,7.8,2.4,9.5,6h5.1c-2-6.6-8.4-11.2-15.8-10.7c-7.4,0.6-13.4,6.6-13.9,14c-0.6,8.9,6.4,16.3,15.2,16.3
					c6.8,0,12.6-4.5,14.5-10.7L144.3,24.7z"/>
			</g>
		</g>
		<polygon class="st1" points="40.7,14.4 31.7,14.4 31.7,11.6 9.9,33.4 11.5,35 32,35 43.6,23.5 40.7,23.5 		"/>
		<polygon class="st2" points="11.9,11.6 11.9,14.4 2.8,14.4 2.8,23.5 0,23.5 9.1,32.6 21,20.7 		"/>
	</g>
</g>
</svg>
