<?xml version="1.0" encoding="utf-8"?>
<!-- Generator: Adobe Illustrator 22.0.1, SVG Export Plug-In . SVG Version: 6.00 Build 0)  -->
<svg version="1.1" id="Layer_1" xmlns="http://www.w3.org/2000/svg" xmlns:xlink="http://www.w3.org/1999/xlink" x="0px" y="0px"
	 viewBox="0 0 75 75" style="enable-background:new 0 0 75 75;" xml:space="preserve">
<style type="text/css">
	.st0{fill:#667078;}
	.st1{fill-rule:evenodd;clip-rule:evenodd;fill:#37373D;}
	.st2{fill:#37373D;}
	.st3{fill:#E01B22;}
	.st4{fill-rule:evenodd;clip-rule:evenodd;fill:#FFFFFF;}
	.st5{fill:#1DA1F2;}
	.st6{fill:#FFFFFF;}
	.st7{fill:#3B5998;}
</style>
<g>
	<g>
		<path class="st7" d="M71.2,74.9H3.8c-2.1,0-3.7-1.7-3.7-3.7V3.7C0.1,1.7,1.7,0,3.8,0h67.4c2.1,0,3.7,1.7,3.7,3.7v67.4
			C74.9,73.2,73.3,74.9,71.2,74.9"/>
	</g>
	<path class="st6" d="M40.1,75V46h-9.8V34.7h9.8v-8.3c0-9.7,5.9-14.9,14.5-14.9c4.1,0,7.7,0.3,8.7,0.4V22l-6,0
		c-4.7,0-5.6,2.2-5.6,5.5v7.2h11.2L61.5,46h-9.7v29H40.1z"/>
</g>
</svg>
