<?xml version="1.0" encoding="utf-8"?>
<!-- Generator: Adobe Illustrator 22.0.1, SVG Export Plug-In . SVG Version: 6.00 Build 0)  -->
<svg version="1.1" id="Layer_1" xmlns="http://www.w3.org/2000/svg" xmlns:xlink="http://www.w3.org/1999/xlink" x="0px" y="0px"
	 viewBox="0 0 75 75" style="enable-background:new 0 0 75 75;" xml:space="preserve">
<style type="text/css">
	.st0{fill:#667078;}
	.st1{fill-rule:evenodd;clip-rule:evenodd;fill:#37373D;}
	.st2{fill:#37373D;}
	.st3{fill:#E01B22;}
	.st4{fill-rule:evenodd;clip-rule:evenodd;fill:#FFFFFF;}
	.st5{fill:#1DA1F2;}
	.st6{fill:#FFFFFF;}
	.st7{fill:#3B5998;}
</style>
<g>
	<path class="st5" d="M71.2,74.9H3.8c-2.1,0-3.7-1.7-3.7-3.7V3.8c0-2.1,1.7-3.7,3.7-3.7h67.4c2.1,0,3.7,1.7,3.7,3.7v67.4
		C74.9,73.3,73.3,74.9,71.2,74.9"/>
	<path class="st6" d="M28.7,56.7c17.8,0,27.6-14.8,27.6-27.6c0-0.4,0-0.8,0-1.3c1.9-1.4,3.5-3.1,4.8-5c-1.7,0.8-3.6,1.3-5.6,1.5
		c2-1.2,3.5-3.1,4.3-5.4c-1.9,1.1-3.9,1.9-6.1,2.4c-1.8-1.9-4.3-3.1-7.1-3.1c-5.3,0-9.7,4.3-9.7,9.7c0,0.8,0.1,1.5,0.3,2.2
		c-8-0.4-15.2-4.3-20-10.1c-0.8,1.4-1.3,3.1-1.3,4.9c0,3.4,1.7,6.3,4.3,8.1c-1.6,0-3.1-0.5-4.4-1.2c0,0,0,0.1,0,0.1
		c0,4.7,3.3,8.6,7.8,9.5c-0.8,0.2-1.7,0.3-2.6,0.3c-0.6,0-1.2-0.1-1.8-0.2c1.2,3.8,4.8,6.6,9,6.7c-3.3,2.6-7.5,4.1-12,4.1
		c-0.8,0-1.6,0-2.3-0.1C18.2,55.1,23.3,56.7,28.7,56.7"/>
</g>
</svg>
