<?xml version="1.0" encoding="utf-8"?>
<!-- Generator: Adobe Illustrator 22.0.1, SVG Export Plug-In . SVG Version: 6.00 Build 0)  -->
<svg version="1.1" id="Layer_1" xmlns="http://www.w3.org/2000/svg" xmlns:xlink="http://www.w3.org/1999/xlink" x="0px" y="0px"
	 viewBox="0 0 75 75" style="enable-background:new 0 0 75 75;" xml:space="preserve">
<style type="text/css">
	.st0{fill:#667078;}
	.st1{fill-rule:evenodd;clip-rule:evenodd;fill:#37373D;}
	.st2{fill:#37373D;}
	.st3{fill:#E01B22;}
	.st4{fill-rule:evenodd;clip-rule:evenodd;fill:#FFFFFF;}
	.st5{fill:#1DA1F2;}
	.st6{fill:#FFFFFF;}
	.st7{fill:#3B5998;}
</style>
<g>
	<g>
		<path class="st0" d="M71.2,75H3.8c-2.1,0-3.7-1.7-3.7-3.7V3.9c0-2.1,1.7-3.7,3.7-3.7h67.4c2.1,0,3.7,1.7,3.7,3.7v67.4
			C74.9,73.3,73.3,75,71.2,75"/>
	</g>
	<path class="st1" d="M61.1,35.8c-0.1-5.3-0.6-10.6-2.7-12.6c-0.8-0.8-1.6-1.2-4.8-1.5c-4-0.4-9.4-0.4-13.5-0.4c-1.7,0-3.4,0-5.1,0
		c-4.1,0-9.5,0.1-13.5,0.4c-3.2,0.3-4,0.8-4.8,1.5c-2.2,2-2.7,7.5-2.7,12.9c0,1,0,2,0,3c0.1,5.4,0.5,10.8,2.7,12.8
		c0.8,0.8,1.6,1.2,4.8,1.5c4,0.4,9.4,0.4,13.5,0.4c1.7,0,3.4,0,5.1,0c4.1,0,9.5-0.1,13.5-0.4c3.2-0.3,4-0.8,4.8-1.5
		c2.2-2,2.7-7.3,2.7-12.6C61.1,38.1,61.1,37,61.1,35.8z M32.9,44.8v-14l11.9,6.8L32.9,44.8z"/>
</g>
</svg>
